<svg width="512" height="512" viewBox="0 0 512 512" xmlns="http://www.w3.org/2000/svg">
  <!-- Background Circle -->
  <circle cx="256" cy="256" r="240" fill="#f8f9fa" stroke="#e9ecef" stroke-width="2"/>
  
  <!-- Speedometer Arc -->
  <path d="M 150 350 A 120 120 0 1 1 362 350" fill="none" stroke="#28a745" stroke-width="8" stroke-linecap="round"/>
  <path d="M 140 340 A 130 130 0 1 1 372 340" fill="none" stroke="#20c997" stroke-width="6" stroke-linecap="round"/>
  
  <!-- Speed Marks -->
  <line x1="180" y1="180" x2="190" y2="190" stroke="#343a40" stroke-width="4" stroke-linecap="round"/>
  <line x1="256" y1="140" x2="256" y2="160" stroke="#343a40" stroke-width="4" stroke-linecap="round"/>
  <line x1="332" y1="180" x2="322" y2="190" stroke="#343a40" stroke-width="4" stroke-linecap="round"/>
  <line x1="370" y1="256" x2="350" y2="256" stroke="#343a40" stroke-width="4" stroke-linecap="round"/>
  <line x1="332" y1="332" x2="322" y2="322" stroke="#343a40" stroke-width="4" stroke-linecap="round"/>
  
  <!-- Speed Needle -->
  <line x1="256" y1="256" x2="320" y2="200" stroke="#343a40" stroke-width="6" stroke-linecap="round"/>
  <circle cx="256" cy="256" r="8" fill="#343a40"/>
  
  <!-- Text -->
  <text x="256" y="200" text-anchor="middle" font-family="Arial, sans-serif" font-size="32" font-weight="bold" fill="#343a40">TRAFFIC</text>
  <text x="256" y="320" text-anchor="middle" font-family="Arial, sans-serif" font-size="48" font-weight="bold" fill="#28a745">SPEED</text>
  <text x="256" y="380" text-anchor="middle" font-family="Arial, sans-serif" font-size="20" font-weight="normal" fill="#6c757d" letter-spacing="2px">ANALYSER</text>
  
  <!-- Speed Lines -->
  <line x1="100" y1="320" x2="130" y2="320" stroke="#28a745" stroke-width="3"/>
  <line x1="105" y1="330" x2="125" y2="330" stroke="#28a745" stroke-width="2"/>
  <line x1="110" y1="340" x2="120" y2="340" stroke="#28a745" stroke-width="2"/>
</svg>